# xmcd
#
# Track frame offsets:
#	150
#	19353
#	34999
#	48448
#	64440
#	82968
#	99534
#	117402
#	134405
#	150728
#	169683
#	186236
#	199810
#	215384
#
# Disc length: 3088 seconds
#
# Revision: 1
# Processed by: cddbd v1.5.1PL2 Copyright (c) Steve Scherf et al.
# Submitted via: audiograbber 1.83.01
#
DISCID=cb0c0e0e
DTITLE=Star Disc - SD131
DYEAR=1900
DGENRE=Karaoke
TTITLE0=Strait, George - You,ll Be There
TTITLE1=Sugarland - Something More
TTITLE2=Jackson, Alan - Talkin' Song Repair Blues, The
TTITLE3=Morgan, Craig - Redneck Yacht Club
TTITLE4=Gracin, Josh - Stay With Me (Brass Bed)
TTITLE5=Womack, Lee Ann - He Oughta Know That By Now
TTITLE6=Van Zant - Help Somebody
TTITLE7=O'Neal, Jamie - Somebody's Hero
TTITLE8=Shupe, Ryan and The Rubberband - Dream Big
TTITLE9=Lambert, Miranda - Bring Me Down
TTITLE10=Aldean, Jason - Hicktown
TTITLE11=Lucas, Lauren - What You Ain't Gonna Get
TTITLE12=Carter, Deana - One Day At A Time
TTITLE13=Hot Apple Pie - Hillbillies
EXTD=
EXTT0=
EXTT1=
EXTT2=
EXTT3=
EXTT4=
EXTT5=
EXTT6=
EXTT7=
EXTT8=
EXTT9=
EXTT10=
EXTT11=
EXTT12=
EXTT13=
PLAYORDER=
